<?xml version="1.0" encoding="utf-8"?>
<svg version="1.1" x="0px" y="0px" viewBox="0.776 0 99.224 101.257" style="enable-background:new 0 0 100 100;" xmlns="http://www.w3.org/2000/svg">
  <g>
    <path d="M95.3,52.6c0-7.3-5.9-13.2-13.2-13.2S69,45.3,69,52.6c0,5.8,3.8,10.7,9.1,12.5V69c0,11.2-9.1,20.3-20.3,20.3    S37.3,80.2,37.3,69v-7.7c13.6-0.7,24.4-11.9,24.4-25.7V10.1C61.8,7.9,60,6,57.7,6h-8.2c-0.3-2-1.9-3.5-4-3.5    c-2.3,0-4.1,1.8-4.1,4.1v7c0,2.3,1.8,4.1,4.1,4.1c2.1,0,3.7-1.5,4-3.5h4.1v21.4c0,9.7-7.9,17.6-17.6,17.6h-5.5    c-9.7,0-17.6-7.9-17.6-17.6V14.2H17c0.3,2,1.9,3.5,4,3.5c2.3,0,4.1-1.8,4.1-4.1v-7c0-2.3-1.8-4.1-4.1-4.1c-2.1,0-3.7,1.5-4,3.5    H8.8c-2.3,0-4.1,1.8-4.1,4.1v25.5c0,13.8,10.9,24.9,24.4,25.7V69c0,15.7,12.8,28.5,28.5,28.5S86.2,84.7,86.2,69v-3.9    C91.5,63.3,95.3,58.4,95.3,52.6z M82.1,57.6c-2.7,0-5-2.2-5-5c0-2.7,2.2-5,5-5s5,2.2,5,5C87.1,55.3,84.9,57.6,82.1,57.6z" style="fill: rgb(0, 136, 255);"/>
  </g>
</svg>